<svg width="258" height="50" viewBox="0 0 258 50" fill="none" xmlns="http://www.w3.org/2000/svg">
<g clip-path="url(#clip0_742_161)">
<path d="M168.404 19.2053H162.156C161.382 13.461 157.26 8.17059 151.585 6.60517C142.55 4.11518 134.459 11.1846 133.648 20.0431C133.391 22.8535 133.394 27.1492 133.648 29.9596C134.436 38.6579 142.163 45.6239 151.091 43.5444C158.054 41.9223 162.617 34.9029 162.32 27.9203H168.488C168.638 32.1826 167.764 36.3515 165.591 40.0231C155.294 57.3996 128.675 50.6439 127.48 30.764C127.754 25.5504 126.826 19.943 128.244 14.8829C131.148 4.51905 141.719 -1.79937 152.296 0.460309C161.175 2.35617 167.914 10.1098 168.408 19.2053H168.404Z" fill="#FFFCF5"/>
<path d="M224.546 0.00585938H240.126C254.138 0.907061 258.301 20.0326 245.61 26.4444C241.705 28.4171 239.349 27.6294 235.317 27.9231C235.197 27.9331 235.086 27.8597 235.12 28.0432L257.062 50.0025H248.534L226.432 27.9231H224.549V50.0025H218.461V22.0853H240.123C241.418 22.0853 243.544 21.0005 244.526 20.1627C248.775 16.5346 248.107 9.69544 243.261 6.95179C242.58 6.56794 240.958 5.92709 240.203 5.92709H224.546V0.00585938Z" fill="#FFFCF5"/>
<path d="M81.9092 50L100.771 0.0867824L106.048 0L124.596 50H118.111L103.374 9.44593L88.3978 50H81.9092Z" fill="#FFFCF5"/>
<path d="M0.94043 50L19.8323 0.0534045L25.0092 0L43.7075 50H37.2589L37.0986 49.7597C32.0853 36.3785 27.3623 22.8872 22.5225 9.44259L7.38569 50H0.94043Z" fill="#FFFCF5"/>
<path d="M55.6409 0.00585938V44.1614H79.5861V49.9992H49.4727L49.5528 0.00585938H55.6409Z" fill="#FFFCF5"/>
<path d="M176.812 5.92375V0.00585938H208.647L208.767 0.12602V5.80359L208.647 5.92375H176.812Z" fill="#FFFCF5"/>
<path d="M208.767 44.1621H176.812V50.0032H208.767V44.1621Z" fill="#FFFCF5"/>
<path d="M208.767 27.9241H176.812V22.083H208.647L208.767 22.2032V27.9241Z" fill="#FFFCF5"/>
</g>
<defs>
<clipPath id="clip0_742_161">
<rect width="256.118" height="50" fill="white" transform="translate(0.941406)"/>
</clipPath>
</defs>
</svg>
